<svg xmlns="http://www.w3.org/2000/svg" width="90.47" height="105.6" viewBox="0 0 90.47 105.6"><defs><style>.cls-1{fill:#3a3a3a;}</style></defs><g id="Layer_2" data-name="Layer 2"><g id="Layer_1-2" data-name="Layer 1"><path class="cls-1" d="M90.15,53.47a30.18,30.18,0,0,0-12.3-20.61,33.71,33.71,0,0,0-9.48-4.53c-.75-.23-1.5-.43-2.27-.61a24.55,24.55,0,0,0,3.28-4A19.92,19.92,0,0,0,72,17.86a19.3,19.3,0,0,0,.65-4.35,3.23,3.23,0,0,0-.27-1.69c-.85-1.51-3.43-1.37-4.91-1.46A21.75,21.75,0,0,0,51.61,16a14.32,14.32,0,0,0-1.37,1.44q-.27-1.08-.6-2.13c-.25-.81-.52-1.61-.82-2.39a25.77,25.77,0,0,0-5.24-8.65A18.86,18.86,0,0,0,38.22.44,2.84,2.84,0,0,0,35.74.19a3,3,0,0,0-.87.72,18.29,18.29,0,0,0-3.81,8.8,19,19,0,0,0,1,10,20.53,20.53,0,0,0,3.11,5.39,16.36,16.36,0,0,0,3.91,3.57l-.74-.13-1.64-.26c-.29-.05-1.63-.23-1.92-.26l-1.49-.15a37.73,37.73,0,0,0-4.12-.15h-.62l-.66,0-.59,0-.39,0-.46,0-.53.07-.35.05-.44.06-.53.09-.77.15H23.8L23,28.5l-.53.13-.43.11-.78.22-.08,0-.82.26c-.4.13-.79.27-1.18.42l-.91.37h0l-.48.2-.48.22c-.32.15-.64.3-.95.47s-.63.32-.94.49l-.46.26-.91.55-.87.56,0,0-.43.3-.86.63-.83.66c-.2.17-.41.34-.6.52l-.53.47c-.2.19-.4.37-.6.57l-.41.41-.24.25-.58.63c-.16.18-.32.36-.47.55s-.3.34-.44.52-.52.66-.58.75-.21.27-.31.41l-.55.77-.44.66-.41.64s-.28.47-.39.66a.3.3,0,0,0,0,.08L4.08,43s-.26.48-.36.68-.26.5-.38.76c-.32.66-.62,1.34-.9,2v0h0c0,.15-.11.29-.17.44l-.2.54c-.07.18-.13.35-.18.52a1.34,1.34,0,0,0-.07.18c-.05.15-.1.3-.14.45-.17.55-.35,1.09-.5,1.64l-.11.43a2.68,2.68,0,0,0-.07.27c0,.11,0,.23-.08.34s-.09.39-.13.59a.06.06,0,0,0,0,0c-.05.22-.1.44-.14.66s-.12.66-.18,1l-.09.59c0,.11,0,.22,0,.33s0,.23,0,.35,0,.22,0,.33,0,.37-.06.56-.06.63-.08.88c0,.42,0,.83-.06,1.25A.81.81,0,0,0,0,58c0,.34,0,.68,0,1a32.34,32.34,0,0,0,1.18,8.41,42.38,42.38,0,0,0,9.64,16.92c.1.12.61.67.61.67.28.31.57.61.86.91l1.35,1.34.65.62c7.46,7.24,16.83,12.38,26.46,16.25.2.09,3.43,1.33,3.81,1.46,0,0,12.11-4.2,26.18-15.28a114,114,0,0,0,10-8.88A33.42,33.42,0,0,0,89.47,66a33,33,0,0,0,1-7.73A31.6,31.6,0,0,0,90.15,53.47Z"/></g></g></svg>