<svg id="Layer_1" data-name="Layer 1" xmlns="http://www.w3.org/2000/svg" xmlns:xlink="http://www.w3.org/1999/xlink" width="520" height="210" viewBox="0 0 520 210"><defs><style>.cls-1{fill:none;}.cls-2{fill:#fbc4ab;}.cls-3{fill:url(#New_Pattern_5);}</style><pattern id="New_Pattern_5" data-name="New Pattern 5" width="520" height="420" patternTransform="translate(426.28 19.89)" patternUnits="userSpaceOnUse" viewBox="0 0 520 420"><rect class="cls-1" width="520" height="420"/><path class="cls-2" d="M546.14,343.72a30.23,30.23,0,0,0-12.31-20.62,33.65,33.65,0,0,0-9.47-4.53c-.75-.23-1.51-.43-2.27-.6a26,26,0,0,0,3.27-4,19.84,19.84,0,0,0,2.65-5.9,19.3,19.3,0,0,0,.65-4.35,3.15,3.15,0,0,0-.27-1.69c-.85-1.51-3.42-1.37-4.91-1.46a21.23,21.23,0,0,0-5.73.43,21.67,21.67,0,0,0-10.15,5.16,14.42,14.42,0,0,0-1.38,1.44q-.27-1.08-.6-2.13c-.25-.81-.52-1.61-.82-2.39a25.77,25.77,0,0,0-5.24-8.65,19,19,0,0,0-5.35-3.78,2.87,2.87,0,0,0-2.49-.25,3,3,0,0,0-.87.72,19.54,19.54,0,0,0-4.06,12.17,18.75,18.75,0,0,0,1.28,6.64,20.5,20.5,0,0,0,3.1,5.39,16.65,16.65,0,0,0,3.92,3.58l-.75-.14-1.63-.26-1.93-.26-1.49-.15a37.64,37.64,0,0,0-4.11-.15l-.63,0-.66,0-.59,0-.39,0-.46,0c-.18,0-.35,0-.53.06l-.35.05-.43.07-.54.09-.77.14h-.05l-.78.17-.52.13L478,319c-.26.08-.52.14-.78.23l-.07,0-.83.26c-.4.13-.79.27-1.18.42l-.91.37h0l-.48.21-.48.21-.95.47c-.32.15-.63.32-.94.49l-.46.26-.91.55-.87.57h0l-.44.3-.86.63-.83.66-.6.52c-.18.15-.36.31-.53.48l-.59.56-.41.41c-.09.08-.16.17-.24.25l-.59.63c-.16.18-.32.36-.47.55l-.44.52c-.13.16-.52.66-.58.75s-.21.27-.31.41l-.55.77-.44.66c-.14.21-.27.43-.4.65,0,0-.28.46-.4.66a.43.43,0,0,0,0,.07l-.38.67s-.25.48-.36.68l-.38.76c-.32.66-.62,1.34-.89,2l0,0h0c-.06.15-.12.29-.17.44l-.21.55-.18.51a.64.64,0,0,0-.06.18,4,4,0,0,0-.15.45c-.17.55-.35,1.09-.49,1.64l-.12.43c0,.1,0,.19-.06.28s-.06.22-.09.33-.09.39-.13.59a.06.06,0,0,0,0,0c-.05.22-.1.44-.14.66s-.12.66-.17,1-.07.39-.1.59,0,.22,0,.33,0,.23-.05.35,0,.22,0,.33l-.06.56s-.06.63-.08.88c0,.42-.05.84-.06,1.25a.86.86,0,0,1,0,.16c0,.34,0,.68,0,1a32.71,32.71,0,0,0,1.18,8.41,42.5,42.5,0,0,0,9.64,16.92c.1.12.61.67.61.67.28.31.57.61.86.91l1.35,1.34c.15.14.58.55.65.63,7.46,7.23,16.83,12.37,26.46,16.24.21.09,3.43,1.33,3.81,1.46,0,0,12.11-4.2,26.18-15.28a113.8,113.8,0,0,0,10-8.87,33.5,33.5,0,0,0,8.74-15.5,32.45,32.45,0,0,0,1-7.73A31.37,31.37,0,0,0,546.14,343.72Z"/><path class="cls-2" d="M26.14,343.72A30.23,30.23,0,0,0,13.83,323.1a33.65,33.65,0,0,0-9.47-4.53c-.75-.23-1.51-.43-2.27-.6a26,26,0,0,0,3.27-4A19.84,19.84,0,0,0,8,308.1a19.3,19.3,0,0,0,.65-4.35,3.15,3.15,0,0,0-.27-1.69c-.85-1.51-3.42-1.37-4.91-1.46a21.23,21.23,0,0,0-5.73.43,21.67,21.67,0,0,0-10.15,5.16,14.42,14.42,0,0,0-1.38,1.44q-.27-1.08-.6-2.13c-.25-.81-.52-1.61-.82-2.39a25.77,25.77,0,0,0-5.24-8.65,19,19,0,0,0-5.35-3.78,2.87,2.87,0,0,0-2.49-.25,3,3,0,0,0-.87.72A18.29,18.29,0,0,0-33,300a18.34,18.34,0,0,0-.25,3.37A18.75,18.75,0,0,0-31.93,310a20.5,20.5,0,0,0,3.1,5.39,16.65,16.65,0,0,0,3.92,3.58l-.75-.14-1.63-.26-1.93-.26-1.49-.15a37.64,37.64,0,0,0-4.11-.15l-.63,0-.66,0-.59,0-.39,0-.46,0c-.18,0-.35,0-.53.06l-.35.05-.43.07-.54.09-.77.14h0l-.78.17-.52.13L-42,319c-.26.08-.52.14-.78.23l-.07,0-.83.26c-.4.13-.79.27-1.18.42l-.91.37h0l-.48.21-.48.21-.95.47c-.32.15-.63.32-.94.49l-.46.26-.91.55-.87.57h0l-.44.3-.86.63-.83.66-.6.52c-.18.15-.36.31-.53.48l-.59.56-.41.41c-.09.08-.16.17-.24.25l-.59.63c-.16.18-.32.36-.47.55l-.44.52c-.13.16-.52.66-.58.75s-.21.27-.31.41l-.55.77-.44.66c-.14.21-.27.43-.4.65,0,0-.28.46-.4.66a.43.43,0,0,0,0,.07l-.38.67s-.25.48-.36.68l-.38.76c-.32.66-.62,1.34-.89,2l0,0h0c-.06.15-.12.29-.17.44l-.21.55-.18.51a.64.64,0,0,0-.06.18,4,4,0,0,0-.15.45c-.17.55-.35,1.09-.49,1.64l-.12.43c0,.1-.05.19-.06.28s-.06.22-.09.33-.09.39-.13.59a.06.06,0,0,0,0,0c-.05.22-.1.44-.14.66s-.12.66-.17,1-.07.39-.1.59,0,.22,0,.33,0,.23,0,.35,0,.22,0,.33l-.06.56s-.06.63-.08.88c0,.42-.05.84-.06,1.25a.86.86,0,0,1,0,.16c0,.34,0,.68,0,1a32.71,32.71,0,0,0,1.18,8.41,42.5,42.5,0,0,0,9.64,16.92c.1.12.61.67.61.67.28.31.57.61.86.91l1.35,1.34c.15.14.58.55.65.63,7.46,7.23,16.83,12.37,26.46,16.24.21.09,3.43,1.33,3.81,1.46,0,0,12.11-4.2,26.18-15.28a113.8,113.8,0,0,0,10-8.87,33.5,33.5,0,0,0,8.74-15.5,32.45,32.45,0,0,0,1-7.73A31.37,31.37,0,0,0,26.14,343.72Z"/><path class="cls-2" d="M267.48,384.45c1.86-.16,2.65-1,2.65-2.67s-.84-2.67-2.76-2.77H261a18.75,18.75,0,0,1-11.87-4.07,18.24,18.24,0,0,1-6.65-10.48l-.28-1.22H285.1v-6.49a19,19,0,0,0-1.61-5.8,24.37,24.37,0,0,0-22.46-15,24.32,24.32,0,1,0,0,48.63C264,384.54,266.18,384.51,267.48,384.45Zm5.23-38.87a20.29,20.29,0,0,1,5.84,10.93l.25,1.2H242.17l.24-1.2a18.74,18.74,0,0,1,6.64-11,18.55,18.55,0,0,1,12.08-4.34A16.65,16.65,0,0,1,272.71,345.58Z"/><path class="cls-2" d="M339.19,383.83a2.1,2.1,0,0,0,.77-1.76V360.18a24.29,24.29,0,1,0-24.26,24.36,22.87,22.87,0,0,0,17.3-7.8l1.73-1.87v2.55c0,4,.06,4.81.08,4.95.31,1.53,1,2.17,2.39,2.17A3,3,0,0,0,339.19,383.83Zm-10.1-37.09a18.94,18.94,0,1,1-13.39-5.6A18.23,18.23,0,0,1,329.09,346.74Z"/><path class="cls-2" d="M371.18,384.25a24.37,24.37,0,0,1,0-48.74h6.45a2.66,2.66,0,0,1,1.92.84,2.54,2.54,0,0,1,.84,1.88,2.39,2.39,0,0,1-.74,1.78,2.53,2.53,0,0,1-1.84.73h-6.56a18.54,18.54,0,0,0-13.54,5.57,19.08,19.08,0,0,0,13.54,32.5h6.36a2.74,2.74,0,0,1,1.95.81,2.39,2.39,0,0,1,.83,1.81c0,1.73-.81,2.52-2.72,2.62S373.66,384.25,371.18,384.25Z"/><path class="cls-2" d="M435.64,384.44a2.37,2.37,0,0,1-1.86-.9,3,3,0,0,1-.85-2.06v-21.4a18.37,18.37,0,0,0-5.52-13.39,18.88,18.88,0,0,0-26.74,0,18.37,18.37,0,0,0-5.52,13.39L395,382c0,1.76-.79,2.47-2.72,2.47a2.36,2.36,0,0,1-1.83-.82,2.76,2.76,0,0,1-.79-1.94v-63a2.26,2.26,0,0,1,.78-1.71,2.66,2.66,0,0,1,3.81.09,2.6,2.6,0,0,1,.84,1.91v26.39l1.73-1.82c4.93-5.18,10.72-7.81,17.21-7.81a24.38,24.38,0,0,1,24.27,24.37v21.5a2.94,2.94,0,0,1-.8,2A2.32,2.32,0,0,1,435.64,384.44Z"/><path class="cls-2" d="M189.37,384a2.66,2.66,0,0,0,.84-1.92V355.72l1.72,1.81c4.94,5.18,10.75,7.81,17.25,7.81A24.29,24.29,0,1,0,184.87,341V382.4a2.24,2.24,0,0,0,.75,1.74,2.71,2.71,0,0,0,1.87.72A2.54,2.54,0,0,0,189.37,384Zm33.26-56.48a18.93,18.93,0,1,1-13.39-5.6A18.21,18.21,0,0,1,222.63,327.54Z"/><path class="cls-2" d="M44.6,384.15a3.94,3.94,0,0,1-2.91-1.25,4,4,0,0,1-1.25-3v-53.5a4.06,4.06,0,0,1,1.25-3,3.94,3.94,0,0,1,2.91-1.25,4,4,0,0,1,3,1.25,4.09,4.09,0,0,1,1.25,3v22.38h36v-22.6a4.05,4.05,0,0,1,1.24-3A3.94,3.94,0,0,1,89,321.94a4.23,4.23,0,0,1,4.25,4.25V379.6A4.23,4.23,0,0,1,89,383.85a4,4,0,0,1-2.91-1.24,4,4,0,0,1-1.24-3V357.39h-36v22.52a4.23,4.23,0,0,1-4.25,4.24Z"/><path class="cls-2" d="M108.69,383.11a3.49,3.49,0,0,0,1.62-2.82V339.66a4,4,0,0,0-1.63-3,4.88,4.88,0,0,0-3.07-1.49,5.2,5.2,0,0,0-3,1.33,3.54,3.54,0,0,0-1.58,2.83V380a4.14,4.14,0,0,0,1.6,2.94,4.68,4.68,0,0,0,3,1.51A5.33,5.33,0,0,0,108.69,383.11Zm0-54.88a4.15,4.15,0,0,0,1.61-2.93,3.6,3.6,0,0,0-1.61-2.79,5.15,5.15,0,0,0-3-1.37,4.75,4.75,0,0,0-3,1.52,4.19,4.19,0,0,0-1.61,2.93,3.57,3.57,0,0,0,1.61,2.79,5.15,5.15,0,0,0,3,1.37A4.73,4.73,0,0,0,108.7,328.23Z"/><path class="cls-2" d="M125.38,402.69a4.29,4.29,0,0,0,1.3-3.12v-20.4l1.63,1.29a22.24,22.24,0,0,0,14,5.13,23.33,23.33,0,0,0,17.22-7.28,25.19,25.19,0,0,0,0-35.16,23.89,23.89,0,0,0-34.34,0,24.3,24.3,0,0,0-7.15,17.58v39.14a3.81,3.81,0,0,0,1.26,3,4.28,4.28,0,0,0,3,1.17A4.05,4.05,0,0,0,125.38,402.69Zm28.28-53.5a16.4,16.4,0,0,1,0,22.88,15.57,15.57,0,0,1-22.33,0,16.4,16.4,0,0,1,0-22.88,15.57,15.57,0,0,1,22.33,0Z"/><path class="cls-2" d="M306.83,455.87a30.21,30.21,0,0,0-12.3-20.61,33.46,33.46,0,0,0-9.48-4.54c-.75-.22-1.51-.43-2.27-.6a26.12,26.12,0,0,0,3.28-4,20.3,20.3,0,0,0,2.65-5.89,20,20,0,0,0,.65-4.36,3.2,3.2,0,0,0-.28-1.68c-.85-1.52-3.42-1.38-4.9-1.47a21.2,21.2,0,0,0-5.73.43,21.79,21.79,0,0,0-10.16,5.16,17,17,0,0,0-1.38,1.44c-.18-.72-.38-1.43-.59-2.13s-.52-1.61-.82-2.39a25.9,25.9,0,0,0-5.25-8.65,18.92,18.92,0,0,0-5.35-3.77,2.83,2.83,0,0,0-2.49-.25,2.68,2.68,0,0,0-.86.71,18.2,18.2,0,0,0-3.82,8.81,19.08,19.08,0,0,0-.25,3.36,18.85,18.85,0,0,0,1.28,6.65,20.2,20.2,0,0,0,3.11,5.38,16.42,16.42,0,0,0,3.91,3.58l-.75-.14-1.63-.26-1.93-.26-1.49-.15a37.64,37.64,0,0,0-4.11-.15l-.63,0-.66,0-.58,0-.39,0-.47.05-.53.06-.34.05-.44.07a5.07,5.07,0,0,0-.54.09l-.77.14-.05,0-.77.17-.53.12-.43.12-.79.22-.07,0c-.28.08-.55.17-.83.27s-.79.27-1.18.42-.61.23-.91.36h0l-.47.21-.49.22c-.32.14-.64.3-1,.46l-.94.49c-.15.09-.3.18-.46.26l-.91.55-.86.57h0l-.44.3-.86.63-.83.66-.6.52-.53.48-.59.56-.41.41-.24.25-.59.64c-.16.17-.31.35-.47.54l-.44.52-.58.75-.31.41c-.07.09-.43.6-.54.77l-.44.66c-.14.22-.28.43-.41.65,0,0-.28.46-.4.66l0,.07-.38.67s-.25.48-.36.68l-.38.76c-.32.66-.62,1.34-.89,2l0,.05h0c-.06.14-.12.29-.17.43l-.21.55-.18.51-.06.19-.15.44c-.17.55-.34,1.09-.49,1.64l-.12.44-.06.27-.09.33c0,.2-.09.4-.13.59,0,0,0,0,0,.05-.05.21-.09.43-.14.66s-.12.65-.17,1-.06.4-.09.59,0,.22-.05.33,0,.23,0,.35,0,.22,0,.33l-.06.57s-.06.62-.08.87c0,.42,0,.84-.06,1.25v.16c0,.34,0,.68,0,1a32.41,32.41,0,0,0,1.17,8.42,42.64,42.64,0,0,0,9.64,16.92c.1.12.61.66.61.66.28.31.57.61.86.91l1.36,1.35.65.62c7.45,7.23,16.82,12.37,26.45,16.25.21.08,3.44,1.32,3.81,1.45,0,0,12.11-4.2,26.18-15.28a113.87,113.87,0,0,0,10-8.87,33.54,33.54,0,0,0,8.74-15.5,33,33,0,0,0,1-7.73A31.45,31.45,0,0,0,306.83,455.87Z"/><path class="cls-2" d="M546.14,133.72a30.23,30.23,0,0,0-12.31-20.62,33.65,33.65,0,0,0-9.47-4.53c-.75-.23-1.51-.43-2.27-.6a26,26,0,0,0,3.27-4A19.84,19.84,0,0,0,528,98.1a19.3,19.3,0,0,0,.65-4.35,3.15,3.15,0,0,0-.27-1.69c-.85-1.51-3.42-1.37-4.91-1.46a21.23,21.23,0,0,0-5.73.43,21.67,21.67,0,0,0-10.15,5.16,14.42,14.42,0,0,0-1.38,1.44q-.27-1.08-.6-2.13c-.25-.81-.52-1.61-.82-2.39a25.77,25.77,0,0,0-5.24-8.65,19,19,0,0,0-5.35-3.78,2.87,2.87,0,0,0-2.49-.25,3,3,0,0,0-.87.72,19.54,19.54,0,0,0-4.06,12.17,18.75,18.75,0,0,0,1.28,6.64,20.5,20.5,0,0,0,3.1,5.39,16.65,16.65,0,0,0,3.92,3.58l-.75-.14-1.63-.26-1.93-.26-1.49-.15a37.64,37.64,0,0,0-4.11-.15l-.63,0c-.22,0-.44,0-.66,0l-.59,0-.39,0-.46.05c-.18,0-.35,0-.53.06l-.35.05-.43.07a5.07,5.07,0,0,0-.54.09l-.77.14h-.05l-.78.17-.52.13L478,109c-.26.08-.52.14-.78.23l-.07,0-.83.26c-.4.13-.79.27-1.18.42l-.91.37h0l-.48.21-.48.21-.95.47c-.32.15-.63.32-.94.49l-.46.26-.91.55-.87.57h0l-.44.3-.86.63-.83.66-.6.52c-.18.15-.36.31-.53.48l-.59.56-.41.41c-.09.08-.16.17-.24.25l-.59.63c-.16.18-.32.36-.47.55l-.44.52c-.13.16-.52.66-.58.75s-.21.27-.31.41l-.55.77-.44.66c-.14.21-.27.43-.4.65,0,0-.28.46-.4.66a.43.43,0,0,0,0,.07l-.38.67s-.25.48-.36.68l-.38.76c-.32.66-.62,1.34-.89,2l0,0h0c-.06.15-.12.29-.17.44l-.21.55-.18.51a.64.64,0,0,0-.06.18,4,4,0,0,0-.15.45c-.17.55-.35,1.09-.49,1.64l-.12.43c0,.1,0,.19-.06.28s-.06.22-.09.33-.09.39-.13.59a.06.06,0,0,0,0,0c-.05.22-.1.44-.14.66s-.12.66-.17,1-.07.39-.1.59,0,.22,0,.33,0,.23-.05.35,0,.22,0,.33l-.06.56s-.06.63-.08.88c0,.42-.05.84-.06,1.25a.86.86,0,0,1,0,.16c0,.34,0,.68,0,1a32.71,32.71,0,0,0,1.18,8.41,42.5,42.5,0,0,0,9.64,16.92c.1.12.61.67.61.67.28.31.57.61.86.91l1.35,1.34c.15.14.58.55.65.63,7.46,7.23,16.83,12.37,26.46,16.24.21.09,3.43,1.33,3.81,1.46,0,0,12.11-4.2,26.18-15.28a113.8,113.8,0,0,0,10-8.87,33.5,33.5,0,0,0,8.74-15.5,32.45,32.45,0,0,0,1-7.73A31.37,31.37,0,0,0,546.14,133.72Z"/><path class="cls-2" d="M26.14,133.72A30.23,30.23,0,0,0,13.83,113.1a33.65,33.65,0,0,0-9.47-4.53c-.75-.23-1.51-.43-2.27-.6a26,26,0,0,0,3.27-4A19.84,19.84,0,0,0,8,98.1a19.3,19.3,0,0,0,.65-4.35,3.15,3.15,0,0,0-.27-1.69C7.54,90.55,5,90.69,3.48,90.6A21.23,21.23,0,0,0-2.25,91,21.67,21.67,0,0,0-12.4,96.19a14.42,14.42,0,0,0-1.38,1.44q-.27-1.08-.6-2.13c-.25-.81-.52-1.61-.82-2.39a25.77,25.77,0,0,0-5.24-8.65,19,19,0,0,0-5.35-3.78,2.87,2.87,0,0,0-2.49-.25,3,3,0,0,0-.87.72A18.29,18.29,0,0,0-33,90a18.34,18.34,0,0,0-.25,3.37A18.75,18.75,0,0,0-31.93,100a20.5,20.5,0,0,0,3.1,5.39,16.65,16.65,0,0,0,3.92,3.58l-.75-.14-1.63-.26-1.93-.26-1.49-.15a37.64,37.64,0,0,0-4.11-.15l-.63,0c-.22,0-.44,0-.66,0l-.59,0-.39,0-.46.05c-.18,0-.35,0-.53.06l-.35.05-.43.07a5.07,5.07,0,0,0-.54.09l-.77.14h0l-.78.17-.52.13L-42,109c-.26.08-.52.14-.78.23l-.07,0-.83.26c-.4.13-.79.27-1.18.42l-.91.37h0l-.48.21-.48.21-.95.47c-.32.15-.63.32-.94.49l-.46.26-.91.55-.87.57h0l-.44.3-.86.63-.83.66-.6.52c-.18.15-.36.31-.53.48l-.59.56c-.08.07-.35.35-.41.41s-.16.17-.24.25l-.59.63c-.16.18-.32.36-.47.55l-.44.52c-.13.16-.52.66-.58.75s-.21.27-.31.41l-.55.77-.44.66c-.14.21-.27.43-.4.65,0,0-.28.46-.4.66a.43.43,0,0,0,0,.07l-.38.67s-.25.48-.36.68-.25.51-.38.76c-.32.66-.62,1.34-.89,2l0,0h0c-.06.15-.12.29-.17.44l-.21.55-.18.51a.64.64,0,0,0-.06.18,4,4,0,0,0-.15.45c-.17.55-.35,1.09-.49,1.64l-.12.43c0,.1-.05.19-.06.28s-.06.22-.09.33-.09.39-.13.59a.06.06,0,0,0,0,0c-.05.22-.1.44-.14.66s-.12.66-.17,1-.07.39-.1.59,0,.22,0,.33,0,.23,0,.35,0,.22,0,.33l-.06.56s-.06.63-.08.88c0,.42-.05.84-.06,1.25a.86.86,0,0,1,0,.16c0,.34,0,.68,0,1a32.71,32.71,0,0,0,1.18,8.41,42.5,42.5,0,0,0,9.64,16.92c.1.12.61.67.61.67.28.31.57.61.86.91l1.35,1.34c.15.14.58.55.65.63,7.46,7.23,16.83,12.37,26.46,16.24.21.09,3.43,1.33,3.81,1.46,0,0,12.11-4.2,26.18-15.28a113.8,113.8,0,0,0,10-8.87,33.5,33.5,0,0,0,8.74-15.5,32.45,32.45,0,0,0,1-7.73A31.37,31.37,0,0,0,26.14,133.72Z"/><path class="cls-2" d="M267.48,174.45c1.86-.16,2.65-1,2.65-2.67s-.84-2.67-2.76-2.77H261a18.75,18.75,0,0,1-11.87-4.07,18.24,18.24,0,0,1-6.65-10.48l-.28-1.22H285.1v-6.49a19,19,0,0,0-1.61-5.8,24.37,24.37,0,0,0-22.46-15,24.32,24.32,0,1,0,0,48.63C264,174.54,266.18,174.51,267.48,174.45Zm5.23-38.87a20.29,20.29,0,0,1,5.84,10.93l.25,1.2H242.17l.24-1.2a18.74,18.74,0,0,1,6.64-11,18.55,18.55,0,0,1,12.08-4.34A16.65,16.65,0,0,1,272.71,135.58Z"/><path class="cls-2" d="M339.19,173.83a2.1,2.1,0,0,0,.77-1.76V150.18a24.29,24.29,0,1,0-24.26,24.36,22.87,22.87,0,0,0,17.3-7.8l1.73-1.87v2.55c0,4,.06,4.81.08,5,.31,1.53,1,2.17,2.39,2.17A3,3,0,0,0,339.19,173.83Zm-10.1-37.09a18.94,18.94,0,1,1-13.39-5.6A18.23,18.23,0,0,1,329.09,136.74Z"/><path class="cls-2" d="M371.18,174.25A24.37,24.37,0,0,1,354,132.65a23.55,23.55,0,0,1,17.22-7.14h6.45a2.66,2.66,0,0,1,1.92.84,2.54,2.54,0,0,1,.84,1.88,2.39,2.39,0,0,1-.74,1.78,2.53,2.53,0,0,1-1.84.73h-6.56a18.54,18.54,0,0,0-13.54,5.57,19.08,19.08,0,0,0,13.54,32.5h6.36a2.74,2.74,0,0,1,1.95.81,2.39,2.39,0,0,1,.83,1.81c0,1.73-.81,2.52-2.72,2.62S373.66,174.25,371.18,174.25Z"/><path class="cls-2" d="M435.64,174.44a2.37,2.37,0,0,1-1.86-.9,3,3,0,0,1-.85-2.06v-21.4a18.37,18.37,0,0,0-5.52-13.39,18.88,18.88,0,0,0-26.74,0,18.37,18.37,0,0,0-5.52,13.39L395,172c0,1.76-.79,2.47-2.72,2.47a2.36,2.36,0,0,1-1.83-.82,2.76,2.76,0,0,1-.79-1.94v-63a2.26,2.26,0,0,1,.78-1.71,2.66,2.66,0,0,1,3.81.09,2.6,2.6,0,0,1,.84,1.91v26.39l1.73-1.82c4.93-5.18,10.72-7.81,17.21-7.81a24.38,24.38,0,0,1,24.27,24.37v21.5a2.94,2.94,0,0,1-.8,2A2.32,2.32,0,0,1,435.64,174.44Z"/><path class="cls-2" d="M189.37,174a2.66,2.66,0,0,0,.84-1.92V145.72l1.72,1.81c4.94,5.18,10.75,7.81,17.25,7.81a24.29,24.29,0,0,0,17.19-41.49A24.32,24.32,0,0,0,184.87,131V172.4a2.24,2.24,0,0,0,.75,1.74,2.71,2.71,0,0,0,1.87.72A2.54,2.54,0,0,0,189.37,174Zm33.26-56.48a18.93,18.93,0,1,1-13.39-5.6A18.21,18.21,0,0,1,222.63,117.54Z"/><path class="cls-2" d="M44.6,174.15a3.94,3.94,0,0,1-2.91-1.25,4,4,0,0,1-1.25-3v-53.5a4.06,4.06,0,0,1,1.25-3,3.94,3.94,0,0,1,2.91-1.25,4,4,0,0,1,3,1.25,4.09,4.09,0,0,1,1.25,3v22.38h36v-22.6a4.05,4.05,0,0,1,1.24-3A3.94,3.94,0,0,1,89,111.94a4.23,4.23,0,0,1,4.25,4.25V169.6A4.23,4.23,0,0,1,89,173.85a4,4,0,0,1-2.91-1.24,4,4,0,0,1-1.24-3V147.39h-36v22.52a4.23,4.23,0,0,1-4.25,4.24Z"/><path class="cls-2" d="M108.69,173.11a3.49,3.49,0,0,0,1.62-2.82V129.66a4,4,0,0,0-1.63-3,4.88,4.88,0,0,0-3.07-1.49,5.2,5.2,0,0,0-3,1.33,3.54,3.54,0,0,0-1.58,2.83V170a4.14,4.14,0,0,0,1.6,2.94,4.68,4.68,0,0,0,3,1.51A5.33,5.33,0,0,0,108.69,173.11Zm0-54.88a4.15,4.15,0,0,0,1.61-2.93,3.6,3.6,0,0,0-1.61-2.79,5.15,5.15,0,0,0-3-1.37,4.75,4.75,0,0,0-3,1.52,4.19,4.19,0,0,0-1.61,2.93,3.57,3.57,0,0,0,1.61,2.79,5.15,5.15,0,0,0,3,1.37A4.73,4.73,0,0,0,108.7,118.23Z"/><path class="cls-2" d="M125.38,192.69a4.29,4.29,0,0,0,1.3-3.12v-20.4l1.63,1.29a22.24,22.24,0,0,0,14,5.13,23.33,23.33,0,0,0,17.22-7.28,25.19,25.19,0,0,0,0-35.16,23.89,23.89,0,0,0-34.34,0,24.3,24.3,0,0,0-7.15,17.58v39.14a3.81,3.81,0,0,0,1.26,3,4.28,4.28,0,0,0,3,1.17A4.05,4.05,0,0,0,125.38,192.69Zm28.28-53.5a16.4,16.4,0,0,1,0,22.88,15.57,15.57,0,0,1-22.33,0,16.4,16.4,0,0,1,0-22.88,15.57,15.57,0,0,1,22.33,0Z"/><path class="cls-2" d="M306.83,245.87a30.21,30.21,0,0,0-12.3-20.61,33.46,33.46,0,0,0-9.48-4.54c-.75-.22-1.51-.43-2.27-.6a26.12,26.12,0,0,0,3.28-4,20.3,20.3,0,0,0,2.65-5.89,20,20,0,0,0,.65-4.36,3.2,3.2,0,0,0-.28-1.68c-.85-1.52-3.42-1.38-4.9-1.47a21.2,21.2,0,0,0-5.73.43,21.79,21.79,0,0,0-10.16,5.16,17,17,0,0,0-1.38,1.44c-.18-.72-.38-1.43-.59-2.13s-.52-1.61-.82-2.39a25.9,25.9,0,0,0-5.25-8.65,18.92,18.92,0,0,0-5.35-3.77,2.83,2.83,0,0,0-2.49-.25,2.68,2.68,0,0,0-.86.71,18.2,18.2,0,0,0-3.82,8.81,19.08,19.08,0,0,0-.25,3.36,18.85,18.85,0,0,0,1.28,6.65,20.2,20.2,0,0,0,3.11,5.38,16.42,16.42,0,0,0,3.91,3.58l-.75-.14-1.63-.26-1.93-.26-1.49-.15a37.64,37.64,0,0,0-4.11-.15l-.63,0-.66,0-.58,0-.39,0-.47.05-.53.06-.34,0-.44.07-.54.09-.77.14-.05,0-.77.17-.53.12-.43.12-.79.22-.07,0c-.28.08-.55.17-.83.27s-.79.27-1.18.42-.61.23-.91.36h0l-.47.21-.49.22c-.32.14-.64.3-1,.46l-.94.49c-.15.09-.3.18-.46.26l-.91.55-.86.57h0l-.44.3-.86.63-.83.66-.6.52-.53.48-.59.56-.41.41-.24.25-.59.64c-.16.17-.31.35-.47.54l-.44.52-.58.75-.31.41c-.07.09-.43.6-.54.77l-.44.66c-.14.22-.28.43-.41.65,0,0-.28.46-.4.66l0,.07-.38.67s-.25.48-.36.68l-.38.76c-.32.66-.62,1.34-.89,2l0,.05h0c-.06.14-.12.29-.17.43l-.21.55-.18.51-.06.19-.15.44c-.17.55-.34,1.09-.49,1.64l-.12.44-.06.27-.09.33c0,.2-.09.4-.13.59,0,0,0,0,0,.05-.05.21-.09.43-.14.66s-.12.65-.17,1-.06.4-.09.59,0,.22-.05.33,0,.23,0,.35,0,.22,0,.33l-.06.57s-.06.62-.08.87c0,.42,0,.84-.06,1.25v.16c0,.34,0,.68,0,1a32.41,32.41,0,0,0,1.17,8.42,42.64,42.64,0,0,0,9.64,16.92c.1.12.61.66.61.66.28.31.57.61.86.91l1.36,1.35.65.62c7.45,7.23,16.82,12.37,26.45,16.25.21.08,3.44,1.32,3.81,1.45,0,0,12.11-4.2,26.18-15.28a113.87,113.87,0,0,0,10-8.87,33.54,33.54,0,0,0,8.74-15.5,33,33,0,0,0,1-7.73A31.45,31.45,0,0,0,306.83,245.87Z"/><path class="cls-2" d="M548.18,286.6c1.85-.16,2.64-1,2.64-2.67s-.84-2.66-2.76-2.77h-6.34a18.77,18.77,0,0,1-11.87-4.07,18.21,18.21,0,0,1-6.65-10.47l-.28-1.23h42.87V258.9a18.76,18.76,0,0,0-1.61-5.8,24.34,24.34,0,0,0-22.46-15,24.32,24.32,0,1,0,0,48.64C544.69,286.7,546.88,286.66,548.18,286.6Zm5.23-38.87a20.36,20.36,0,0,1,5.84,10.93l.24,1.2H522.86l.24-1.2a19.17,19.17,0,0,1,18.72-15.37A16.67,16.67,0,0,1,553.41,247.73Z"/><path class="cls-2" d="M619.88,286a2.09,2.09,0,0,0,.78-1.75v-21.9a24.3,24.3,0,1,0-24.27,24.37,22.88,22.88,0,0,0,17.3-7.81l1.73-1.87v2.55c0,4,.06,4.81.08,5,.31,1.52,1,2.17,2.39,2.17A3,3,0,0,0,619.88,286Zm-10.1-37.09a18.93,18.93,0,1,1-13.39-5.6A18.27,18.27,0,0,1,609.78,248.89Z"/><path class="cls-2" d="M651.88,286.4a24.37,24.37,0,0,1,0-48.74h6.44a2.66,2.66,0,0,1,1.92.84,2.54,2.54,0,0,1,.84,1.88,2.35,2.35,0,0,1-.74,1.78,2.54,2.54,0,0,1-1.84.74h-6.56a19,19,0,0,0,0,38.07h6.36a2.73,2.73,0,0,1,2,.8,2.4,2.4,0,0,1,.83,1.81c0,1.74-.81,2.52-2.72,2.62S654.35,286.4,651.88,286.4Z"/><path class="cls-2" d="M716.33,286.59a2.37,2.37,0,0,1-1.86-.9,3,3,0,0,1-.85-2.06v-21.4a18.39,18.39,0,0,0-5.52-13.39,18.88,18.88,0,0,0-32.25,13.39l-.2,21.89c0,1.76-.79,2.47-2.72,2.47a2.35,2.35,0,0,1-1.83-.81,2.77,2.77,0,0,1-.78-1.95v-63a2.21,2.21,0,0,1,.78-1.7,2.57,2.57,0,0,1,1.88-.77,2.91,2.91,0,0,1,2.77,2.77v26.38l1.72-1.81c4.94-5.19,10.73-7.82,17.21-7.82A24.38,24.38,0,0,1,719,262.23v21.5a2.92,2.92,0,0,1-.8,2A2.3,2.3,0,0,1,716.33,286.59Z"/><path class="cls-2" d="M470.06,286.17a2.66,2.66,0,0,0,.84-1.92V257.87l1.72,1.81c4.94,5.19,10.75,7.81,17.25,7.81a24.3,24.3,0,1,0-24.3-24.36v41.42a2.2,2.2,0,0,0,.75,1.74,2.62,2.62,0,0,0,1.86.72A2.54,2.54,0,0,0,470.06,286.17Zm33.27-56.48a18.53,18.53,0,0,1,5.54,13.44,19,19,0,1,1-5.54-13.44Z"/><path class="cls-2" d="M325.29,286.3a4,4,0,0,1-2.91-1.25,4,4,0,0,1-1.24-3V228.55a4.06,4.06,0,0,1,1.24-3,3.94,3.94,0,0,1,2.91-1.24,4.06,4.06,0,0,1,3,1.25,4.11,4.11,0,0,1,1.24,3v22.38h36v-22.6a4.09,4.09,0,0,1,1.24-3,4,4,0,0,1,2.91-1.24,4.23,4.23,0,0,1,4.25,4.25v53.41a4.23,4.23,0,0,1-4.25,4.25,3.94,3.94,0,0,1-2.91-1.24,4,4,0,0,1-1.24-3V259.54h-36v22.53a4,4,0,0,1-1.24,3A4.09,4.09,0,0,1,325.29,286.3Z"/><path class="cls-2" d="M389.38,285.26a3.49,3.49,0,0,0,1.62-2.82V241.82a4,4,0,0,0-1.63-3,4.89,4.89,0,0,0-3.07-1.48,5.13,5.13,0,0,0-3,1.32,3.51,3.51,0,0,0-1.58,2.83v40.63a4.12,4.12,0,0,0,1.59,2.93,4.65,4.65,0,0,0,3,1.52A5.35,5.35,0,0,0,389.38,285.26Zm0-54.88a4.15,4.15,0,0,0,1.61-2.93,3.59,3.59,0,0,0-1.6-2.79,5.23,5.23,0,0,0-3-1.36,4.71,4.71,0,0,0-3,1.52,4.14,4.14,0,0,0-1.61,2.93,3.55,3.55,0,0,0,1.6,2.78,5.15,5.15,0,0,0,3,1.37A4.71,4.71,0,0,0,389.39,230.38Z"/><path class="cls-2" d="M406.07,304.84a4.29,4.29,0,0,0,1.31-3.12v-20.4l1.62,1.29a22.18,22.18,0,0,0,14,5.13,23.33,23.33,0,0,0,17.22-7.28,25.19,25.19,0,0,0,0-35.16,23.89,23.89,0,0,0-34.34,0,24.32,24.32,0,0,0-7.15,17.58V302a3.82,3.82,0,0,0,1.26,3,4.3,4.3,0,0,0,3,1.17A4,4,0,0,0,406.07,304.84Zm28.29-53.5a16.42,16.42,0,0,1,0,22.88,15.58,15.58,0,0,1-22.34,0,16.42,16.42,0,0,1,0-22.88,15.58,15.58,0,0,1,22.34,0Z"/><path class="cls-2" d="M28.18,286.6c1.85-.16,2.64-1,2.64-2.67s-.84-2.66-2.76-2.77H21.72a18.77,18.77,0,0,1-11.87-4.07A18.21,18.21,0,0,1,3.2,266.62l-.28-1.23H45.79V258.9a18.76,18.76,0,0,0-1.61-5.8,24.34,24.34,0,0,0-22.46-15A23.57,23.57,0,0,0,4.49,245.2a24.24,24.24,0,0,0,0,34.36,23.61,23.61,0,0,0,17.23,7.14C24.69,286.7,26.88,286.66,28.18,286.6Zm5.23-38.87a20.36,20.36,0,0,1,5.84,10.93l.24,1.2H2.86l.24-1.2a19.17,19.17,0,0,1,18.72-15.37A16.67,16.67,0,0,1,33.41,247.73Z"/><path class="cls-2" d="M99.88,286a2.09,2.09,0,0,0,.78-1.75v-21.9a24.38,24.38,0,0,0-24.27-24.27,24.32,24.32,0,1,0,0,48.64,22.88,22.88,0,0,0,17.3-7.81L95.42,277v2.55c0,4,.06,4.81.08,5,.31,1.52,1,2.17,2.39,2.17A3,3,0,0,0,99.88,286Zm-10.1-37.09A19,19,0,0,1,62.9,275.72a19,19,0,0,1,13.49-32.43A18.27,18.27,0,0,1,89.78,248.89Z"/><path class="cls-2" d="M131.88,286.4a24.37,24.37,0,0,1,0-48.74h6.44a2.66,2.66,0,0,1,1.92.84,2.54,2.54,0,0,1,.84,1.88,2.35,2.35,0,0,1-.74,1.78,2.54,2.54,0,0,1-1.84.74h-6.56a19,19,0,0,0,0,38.07h6.36a2.73,2.73,0,0,1,1.95.8,2.4,2.4,0,0,1,.83,1.81c0,1.74-.81,2.52-2.72,2.62S134.35,286.4,131.88,286.4Z"/><path class="cls-2" d="M196.33,286.59a2.37,2.37,0,0,1-1.86-.9,3,3,0,0,1-.85-2.06v-21.4a18.39,18.39,0,0,0-5.52-13.39,18.88,18.88,0,0,0-32.25,13.39l-.2,21.89c0,1.76-.79,2.47-2.72,2.47a2.35,2.35,0,0,1-1.83-.81,2.77,2.77,0,0,1-.78-1.95v-63a2.21,2.21,0,0,1,.78-1.7,2.57,2.57,0,0,1,1.88-.77,2.91,2.91,0,0,1,2.77,2.77v26.38l1.72-1.81c4.94-5.19,10.73-7.82,17.21-7.82A24.38,24.38,0,0,1,199,262.23v21.5a2.92,2.92,0,0,1-.8,2A2.3,2.3,0,0,1,196.33,286.59Z"/><path class="cls-2" d="M306.83,35.87a30.21,30.21,0,0,0-12.3-20.61,33.46,33.46,0,0,0-9.48-4.54c-.75-.22-1.51-.43-2.27-.6a26.12,26.12,0,0,0,3.28-4A20.3,20.3,0,0,0,288.71.26a20,20,0,0,0,.65-4.36,3.2,3.2,0,0,0-.28-1.68c-.85-1.52-3.42-1.38-4.9-1.47a21.2,21.2,0,0,0-5.73.43,21.79,21.79,0,0,0-10.16,5.16,17,17,0,0,0-1.38,1.44c-.18-.72-.38-1.43-.59-2.13S265.8-4,265.5-4.74a25.9,25.9,0,0,0-5.25-8.65,18.92,18.92,0,0,0-5.35-3.77,2.83,2.83,0,0,0-2.49-.25,2.68,2.68,0,0,0-.86.71,18.2,18.2,0,0,0-3.82,8.81,19.08,19.08,0,0,0-.25,3.36,18.85,18.85,0,0,0,1.28,6.65,20.2,20.2,0,0,0,3.11,5.38,16.42,16.42,0,0,0,3.91,3.58l-.75-.14-1.63-.26-1.93-.26L250,10.27a37.64,37.64,0,0,0-4.11-.15l-.63,0-.66,0-.58,0-.39,0-.47.05-.53.06-.34.05-.44.07a5.07,5.07,0,0,0-.54.09l-.77.14-.05,0-.77.17-.53.12-.43.12-.79.22-.07,0c-.28.08-.55.17-.83.27s-.79.27-1.18.42-.61.23-.91.36h0l-.47.21-.49.22c-.32.14-.64.3-1,.46l-.94.49c-.15.09-.3.18-.46.26l-.91.55-.86.57h0l-.44.3-.86.63-.83.66-.6.52-.53.48-.59.56-.41.41-.24.25-.59.64c-.16.17-.31.35-.47.54l-.44.52-.58.75-.31.41c-.07.09-.43.6-.54.77l-.44.66c-.14.22-.28.43-.41.65,0,0-.28.46-.4.66l0,.07-.38.67s-.25.48-.36.68l-.38.76c-.32.66-.62,1.34-.89,2l0,.05h0c-.06.14-.12.29-.17.43l-.21.55-.18.51-.06.19-.15.44c-.17.55-.34,1.09-.49,1.64l-.12.44-.06.27-.09.33c0,.2-.09.4-.13.59,0,0,0,0,0,.05-.05.21-.09.43-.14.66s-.12.65-.17,1-.06.4-.09.59,0,.22-.05.33,0,.23,0,.35,0,.22,0,.33l-.06.57s-.06.62-.08.87c0,.42,0,.84-.06,1.25v.16c0,.34,0,.68,0,1a32.41,32.41,0,0,0,1.17,8.42,42.64,42.64,0,0,0,9.64,16.92c.1.12.61.66.61.66.28.31.57.61.86.91l1.36,1.35.65.62c7.45,7.23,16.82,12.37,26.45,16.25.21.08,3.44,1.32,3.81,1.45,0,0,12.11-4.2,26.18-15.28a113.87,113.87,0,0,0,10-8.87,33.54,33.54,0,0,0,8.74-15.5,33,33,0,0,0,1-7.73A31.45,31.45,0,0,0,306.83,35.87Z"/><path class="cls-2" d="M548.18,76.6c1.85-.16,2.64-.95,2.64-2.67s-.84-2.66-2.76-2.77h-6.34a18.77,18.77,0,0,1-11.87-4.07,18.21,18.21,0,0,1-6.65-10.47l-.28-1.23h42.87V48.9a18.76,18.76,0,0,0-1.61-5.8,24.34,24.34,0,0,0-22.46-15,24.38,24.38,0,0,0-24.37,24.27A24.38,24.38,0,0,0,541.72,76.7C544.69,76.7,546.88,76.66,548.18,76.6Zm5.23-38.87a20.36,20.36,0,0,1,5.84,10.93l.24,1.2H522.86l.24-1.2a19.17,19.17,0,0,1,18.72-15.37A16.67,16.67,0,0,1,553.41,37.73Z"/><path class="cls-2" d="M470.06,76.17a2.66,2.66,0,0,0,.84-1.92V47.87l1.72,1.81c4.94,5.19,10.75,7.81,17.25,7.81A23.51,23.51,0,0,0,507,50.35a23.52,23.52,0,0,0,7.16-17.22A23.46,23.46,0,0,0,507.06,16a24.24,24.24,0,0,0-34.36,0,23.49,23.49,0,0,0-7.13,17.13V74.55a2.2,2.2,0,0,0,.75,1.74,2.62,2.62,0,0,0,1.86.72A2.54,2.54,0,0,0,470.06,76.17Zm33.27-56.48a18.53,18.53,0,0,1,5.54,13.44,18.34,18.34,0,0,1-5.55,13.39,19.07,19.07,0,0,1-26.88,0,18.31,18.31,0,0,1-5.54-13.39,18.47,18.47,0,0,1,5.54-13.44,18.94,18.94,0,0,1,26.89,0Z"/><path class="cls-2" d="M325.29,76.3a4,4,0,0,1-2.91-1.25,4,4,0,0,1-1.24-3V18.55a4.06,4.06,0,0,1,1.24-3,3.94,3.94,0,0,1,2.91-1.24,4.06,4.06,0,0,1,3,1.25,4.11,4.11,0,0,1,1.24,3V40.94h36V18.34a4.09,4.09,0,0,1,1.24-3,4,4,0,0,1,2.91-1.24,4.23,4.23,0,0,1,4.25,4.25V71.75A4.23,4.23,0,0,1,369.68,76a3.94,3.94,0,0,1-2.91-1.24,4,4,0,0,1-1.24-3V49.54h-36V72.07a4,4,0,0,1-1.24,3A4.09,4.09,0,0,1,325.29,76.3Z"/><path class="cls-2" d="M389.38,75.26A3.49,3.49,0,0,0,391,72.44V31.82a4,4,0,0,0-1.63-3,4.89,4.89,0,0,0-3.07-1.48,5.13,5.13,0,0,0-3,1.32,3.51,3.51,0,0,0-1.58,2.83V72.15a4.12,4.12,0,0,0,1.59,2.93,4.65,4.65,0,0,0,3,1.52A5.35,5.35,0,0,0,389.38,75.26Zm0-54.88A4.15,4.15,0,0,0,391,17.45a3.59,3.59,0,0,0-1.6-2.79,5.23,5.23,0,0,0-3-1.36,4.71,4.71,0,0,0-3,1.52,4.14,4.14,0,0,0-1.61,2.93,3.55,3.55,0,0,0,1.6,2.78,5.15,5.15,0,0,0,3,1.37A4.71,4.71,0,0,0,389.39,20.38Z"/><path class="cls-2" d="M406.07,94.84a4.29,4.29,0,0,0,1.31-3.12V71.32L409,72.61a22.18,22.18,0,0,0,14,5.13,23.33,23.33,0,0,0,17.22-7.28,24.3,24.3,0,0,0,7.15-17.58,24.32,24.32,0,0,0-7.15-17.58,23.89,23.89,0,0,0-34.34,0,24.32,24.32,0,0,0-7.15,17.58V92A3.82,3.82,0,0,0,400,95a4.3,4.3,0,0,0,3,1.17A4,4,0,0,0,406.07,94.84Zm28.29-53.5a16.42,16.42,0,0,1,0,22.88,15.58,15.58,0,0,1-22.34,0,15.82,15.82,0,0,1-4.64-11.49A15.71,15.71,0,0,1,412,41.34a15.58,15.58,0,0,1,22.34,0Z"/><path class="cls-2" d="M28.18,76.6c1.85-.16,2.64-.95,2.64-2.67s-.84-2.66-2.76-2.77H21.72A18.77,18.77,0,0,1,9.85,67.09,18.21,18.21,0,0,1,3.2,56.62l-.28-1.23H45.79V48.9a18.76,18.76,0,0,0-1.61-5.8,24.34,24.34,0,0,0-22.46-15A23.57,23.57,0,0,0,4.49,35.2,23.46,23.46,0,0,0-2.65,52.33,23.58,23.58,0,0,0,4.49,69.56,23.61,23.61,0,0,0,21.72,76.7C24.69,76.7,26.88,76.66,28.18,76.6Zm5.23-38.87a20.36,20.36,0,0,1,5.84,10.93l.24,1.2H2.86l.24-1.2A19.17,19.17,0,0,1,21.82,33.29,16.67,16.67,0,0,1,33.41,37.73Z"/><path class="cls-2" d="M99.88,76a2.09,2.09,0,0,0,.78-1.75V52.33A23.46,23.46,0,0,0,93.52,35.2a24.24,24.24,0,0,0-34.36,0A23.46,23.46,0,0,0,52,52.33,24.38,24.38,0,0,0,76.39,76.7a22.88,22.88,0,0,0,17.3-7.81L95.42,67v2.55c0,4,.06,4.81.08,5,.31,1.52,1,2.17,2.39,2.17A3,3,0,0,0,99.88,76ZM89.78,38.89a19,19,0,0,1,0,26.83,19.07,19.07,0,0,1-26.88,0,19,19,0,0,1,0-26.83,18.93,18.93,0,0,1,26.88,0Z"/><path class="cls-2" d="M131.88,76.4A24.38,24.38,0,0,1,107.51,52a24.38,24.38,0,0,1,24.37-24.37h6.44a2.66,2.66,0,0,1,1.92.84,2.54,2.54,0,0,1,.84,1.88,2.35,2.35,0,0,1-.74,1.78,2.54,2.54,0,0,1-1.84.74h-6.56a19,19,0,0,0-19.1,19A19.15,19.15,0,0,0,131.94,71h6.36a2.73,2.73,0,0,1,1.95.8,2.4,2.4,0,0,1,.83,1.81c0,1.74-.81,2.52-2.72,2.62S134.35,76.4,131.88,76.4Z"/><path class="cls-2" d="M196.33,76.59a2.37,2.37,0,0,1-1.86-.9,3,3,0,0,1-.85-2.06V52.23a18.39,18.39,0,0,0-5.52-13.39,18.88,18.88,0,0,0-32.25,13.39l-.2,21.89c0,1.76-.79,2.47-2.72,2.47a2.35,2.35,0,0,1-1.83-.81,2.77,2.77,0,0,1-.78-2v-63a2.21,2.21,0,0,1,.78-1.7A2.57,2.57,0,0,1,153,8.34a2.63,2.63,0,0,1,1.92.85,2.63,2.63,0,0,1,.85,1.92V37.49l1.72-1.81c4.94-5.19,10.73-7.82,17.21-7.82A23.46,23.46,0,0,1,191.81,35,23.58,23.58,0,0,1,199,52.23v21.5a2.92,2.92,0,0,1-.8,2A2.3,2.3,0,0,1,196.33,76.59Z"/></pattern></defs><rect class="cls-3" width="520" height="210"/></svg>